# xmcd CD database file
#
# Track frame offsets:
#	150
#	18637
#	31493
#	46396
#	73725
#	95633
#	97531
#	122803
#	149729
#	164105
#	167350
#	189105
#
# Disc length: 2781 seconds
#
# Revision: 0
# Processed by: cddbd v1.5.2PL0 Copyright (c) Steve Scherf et al.
# Submitted via: CDex 1.70beta2
#
DISCID=a30adb0c
DTITLE=Helen Sheppard - Hello Tomorrow
DYEAR=2003
DGENRE=Jazz
TTITLE0=Don't Say Goodbye
TTITLE1=You Don't Love Me
TTITLE2=In Your Eyes
TTITLE3=Lazarus
TTITLE4=Reeling
TTITLE5=All The Best Men
TTITLE6=Hello Tomorrow
TTITLE7=Troubles Inside
TTITLE8=Three O'Clock
TTITLE9=Walk Ten Miles
TTITLE10=Never Too Late
TTITLE11=One In A Million
EXTD=YEAR: 2003
EXTT0=
EXTT1=
EXTT2=
EXTT3=
EXTT4=
EXTT5=
EXTT6=
EXTT7=
EXTT8=
EXTT9=
EXTT10=
EXTT11=
PLAYORDER=
